<?xml version="1.0" encoding="iso-8859-1"?>
<!-- Generator: Adobe Illustrator 19.0.0, SVG Export Plug-In . SVG Version: 6.00 Build 0)  -->
<svg version="1.1" id="Capa_1" xmlns="http://www.w3.org/2000/svg" xmlns:xlink="http://www.w3.org/1999/xlink" x="0px" y="0px"
	 viewBox="0 0 348.96 348.96" fill="#f4516c" style="enable-background:new 0 0 348.96 348.96;" xml:space="preserve">
<g>
	<g>
		<path d="M174.52,0C98.209,0.088,36.368,61.929,36.28,138.24v202.4c0.014,4.418,3.607,7.989,8.025,7.975
			c2.463-0.008,4.785-1.149,6.295-3.095l43.12-56l33.6,55.6c1.446,2.375,4.02,3.828,6.8,3.84c2.766-0.068,5.329-1.468,6.88-3.76
			l33.52-53.76l33.52,53.44c2.327,3.755,7.259,4.913,11.014,2.586c1.05-0.651,1.935-1.536,2.586-2.586l33.6-55.6l43.12,56
			c2.709,3.49,7.734,4.124,11.225,1.415c1.946-1.51,3.088-3.832,3.095-6.295V138.24C312.592,61.96,250.8,0.132,174.52,0z
			 M296.76,138.24v178.8l-35.92-46.72c-2.684-3.51-7.705-4.179-11.215-1.495c-0.794,0.608-1.468,1.359-1.985,2.215l-33.12,54.32
			l-33.44-53.28c-2.363-3.733-7.305-4.845-11.038-2.482c-1.001,0.633-1.848,1.481-2.482,2.482l-33.04,53.28l-32.96-54.48
			c-2.269-3.791-7.182-5.024-10.973-2.755c-0.937,0.561-1.749,1.308-2.387,2.195L52.28,317.2V138.24
			C52.255,70.729,106.964,15.98,174.476,15.956S296.735,70.64,296.76,138.151C296.76,138.181,296.76,138.21,296.76,138.24z"/>
	</g>
</g>
<g>
	<g>
		<path d="M126.52,100.08c-19.396,0-35.12,15.724-35.12,35.12s15.724,35.12,35.12,35.12s35.12-15.724,35.12-35.12
			S145.916,100.08,126.52,100.08z M126.52,154.24c-10.56,0-19.12-8.56-19.12-19.12S115.96,116,126.52,116s19.12,8.56,19.12,19.12
			S137.08,154.24,126.52,154.24z"/>
	</g>
</g>
<g>
	<g>
		<path d="M222.52,100.08C222.52,100.08,222.52,100.08,222.52,100.08L222.52,100.08c-19.396,0.044-35.084,15.804-35.04,35.2
			c0.044,19.396,15.804,35.084,35.2,35.04c19.396-0.044,35.084-15.804,35.04-35.2C257.676,115.724,241.916,100.036,222.52,100.08z
			 M222.6,154.24c-0.027,0-0.053,0-0.08,0c-10.56-0.044-19.084-8.64-19.04-19.2s8.64-19.084,19.2-19.04
			c10.528,0.044,19.04,8.591,19.04,19.12C241.72,145.68,233.16,154.24,222.6,154.24z"/>
	</g>
</g>
<g>
</g>
<g>
</g>
<g>
</g>
<g>
</g>
<g>
</g>
<g>
</g>
<g>
</g>
<g>
</g>
<g>
</g>
<g>
</g>
<g>
</g>
<g>
</g>
<g>
</g>
<g>
</g>
<g>
</g>
</svg>
