<svg xmlns="http://www.w3.org/2000/svg" width="30" height="30" viewBox="0 0 30 30"><defs><style>.a{fill:#0000ef;stroke:#0000ef;}.b{fill:#fff;}</style></defs><g transform="translate(-1180 -5348)"><path class="a" d="M14.5,29A14.5,14.5,0,1,1,29,14.5,14.468,14.468,0,0,1,14.5,29Z" transform="translate(1180.5 5348.5)"/><path class="b" d="M14.67.3a.974.974,0,0,0-1.4,0L7.483,6.083,1.7.3A.975.975,0,0,0,.3.3a.975.975,0,0,0,0,1.4L6.783,8.184a.9.9,0,0,0,.7.3.844.844,0,0,0,.6-.2L14.67,1.7A.975.975,0,0,0,14.67.3Z" transform="translate(1187 5360)"/></g></svg>