<svg xmlns="http://www.w3.org/2000/svg" width="20.045" height="20.045" viewBox="0 0 20.045 20.045"><defs><style>.a{fill:#3be23b;}.b{fill:#fff;}</style></defs><g transform="translate(-524.5 -2883.5)"><path class="a" d="M10.023,20.045A10.023,10.023,0,1,1,20.045,10.023,10,10,0,0,1,10.023,20.045Z" transform="translate(524.5 2883.5)"/><g transform="translate(529.641 2889.784)"><g transform="translate(0)"><path class="b" d="M137.294,136.3a1.009,1.009,0,0,0-1.427,0l-4.333,4.332-1.81-1.809a1.009,1.009,0,0,0-1.427,1.427l2.523,2.523a1.009,1.009,0,0,0,1.427,0l5.046-5.046A1.009,1.009,0,0,0,137.294,136.3Z" transform="translate(-128.002 -136.002)"/></g></g></g></svg>