<?xml version="1.0"?>
<svg xmlns="http://www.w3.org/2000/svg" xmlns:xlink="http://www.w3.org/1999/xlink" xmlns:svgjs="http://svgjs.com/svgjs" version="1.1" width="512" height="512" x="0" y="0" viewBox="0 0 512 512" style="enable-background:new 0 0 512 512" xml:space="preserve" class=""><g>
<g xmlns="http://www.w3.org/2000/svg">
	<g>
		<rect x="208" y="408" width="24" height="16" fill="#17e78c" data-original="#000000" style="" class=""/>
	</g>
</g>
<g xmlns="http://www.w3.org/2000/svg">
	<g>
		<path d="M472,0H40C17.944,0,0,17.944,0,40v344c0,22.056,17.944,40,40,40h40v-16H40c-13.232,0-24-10.768-24-24V80h480v304    c0,13.232-10.768,24-24,24v16c22.056,0,40-17.944,40-40V40C512,17.944,494.056,0,472,0z M496,64H16V40c0-13.232,10.768-24,24-24    h432c13.232,0,24,10.768,24,24V64z" fill="#17e78c" data-original="#000000" style="" class=""/>
	</g>
</g>
<g xmlns="http://www.w3.org/2000/svg">
	<g>
		<circle cx="40" cy="40" r="8" fill="#17e78c" data-original="#000000" style="" class=""/>
	</g>
</g>
<g xmlns="http://www.w3.org/2000/svg">
	<g>
		<circle cx="72" cy="40" r="8" fill="#17e78c" data-original="#000000" style="" class=""/>
	</g>
</g>
<g xmlns="http://www.w3.org/2000/svg">
	<g>
		<circle cx="104" cy="40" r="8" fill="#17e78c" data-original="#000000" style="" class=""/>
	</g>
</g>
<g xmlns="http://www.w3.org/2000/svg">
	<g>
		<path d="M416,320h-48v-32c0-4.416-3.584-8-8-8H256.488c4.784-12.44,7.512-25.896,7.512-40c0-4.416-3.584-8-8-8h-96v-96    c0-4.416-3.584-8-8-8c-61.76,0-112,50.24-112,112s50.24,112,112,112c41.344,0,77.448-22.584,96.848-56H352v24h-64    c-22.056,0-40,17.944-40,40v80c0,22.056,17.944,40,40,40h128c22.056,0,40-17.944,40-40v-80C456,337.944,438.056,320,416,320z     M56,240c0-50.24,38.8-91.592,88-95.664V238.4l-36.144,86.752C77.088,309.144,56,277.016,56,240z M239.16,280h-32.64    c-3.312-9.288-12.112-16-22.528-16c-13.232,0-24,10.768-24,24s10.768,24,24,24c10.416,0,19.216-6.712,22.528-16h23.328    C212.4,320.184,184.032,336,152,336c-10.256,0-20.128-1.656-29.4-4.648L157.336,248h90.328    C246.72,259.352,243.72,270.104,239.16,280z M192,288c0,4.408-3.592,8-8,8s-8-3.592-8-8c0-4.408,3.592-8,8-8S192,283.592,192,288z     M440,440c0,13.232-10.768,24-24,24H288c-13.232,0-24-10.768-24-24v-80c0-13.232,10.768-24,24-24h128c13.232,0,24,10.768,24,24    V440z" fill="#17e78c" data-original="#000000" style="" class=""/>
	</g>
</g>
<g xmlns="http://www.w3.org/2000/svg">
	<g>
		<path d="M296,96c-2.12,0-4.16,0.84-5.656,2.344l-28.92,28.92C241.288,107.952,214.04,96,184,96c-4.416,0-8,3.584-8,8v104    c0,4.416,3.584,8,8,8h104c4.416,0,8-3.584,8-8c0-25.96-8.96-49.832-23.84-68.848L299.312,112H336V96H296z M279.664,200H192    v-87.664c22.456,1.864,42.696,11.544,58.12,26.232l-15.776,15.776l11.312,11.312l15.104-15.104    C271.296,164.584,278.136,181.536,279.664,200z" fill="#17e78c" data-original="#000000" style="" class=""/>
	</g>
</g>
<g xmlns="http://www.w3.org/2000/svg">
	<g>
		<rect x="352" y="96" width="128" height="16" fill="#17e78c" data-original="#000000" style="" class=""/>
	</g>
</g>
<g xmlns="http://www.w3.org/2000/svg">
	<g>
		<rect x="352" y="128" width="128" height="16" fill="#17e78c" data-original="#000000" style="" class=""/>
	</g>
</g>
<g xmlns="http://www.w3.org/2000/svg">
	<g>
		<rect x="352" y="160" width="128" height="16" fill="#17e78c" data-original="#000000" style="" class=""/>
	</g>
</g>
<g xmlns="http://www.w3.org/2000/svg">
	<g>
		<path d="M192,496v-80c0-4.416-3.584-8-8-8h-32v-24c0-4.416-3.584-8-8-8h-40c-4.416,0-8,3.584-8,8v64H64c-4.416,0-8,3.584-8,8v40    H16v16h48h40h40h40h40v-16H192z M96,496H72v-32h24V496z M136,416v80h-24v-40v-64h24V416z M176,496h-24v-72h24V496z" fill="#17e78c" data-original="#000000" style="" class=""/>
	</g>
</g>
<g xmlns="http://www.w3.org/2000/svg">
	<g>
		<path d="M408.416,365.464l-18.496,55.504l-39.048-65.088c-1.544-2.576-4.32-4.072-7.4-3.864c-3,0.2-5.624,2.064-6.808,4.832    l-19.344,45.144l-15.648-15.648c-1.896-1.896-4.616-2.712-7.264-2.176c-2.632,0.536-4.824,2.368-5.824,4.864l-16,40l14.848,5.944    l11.496-28.736l15.424,15.424c1.88,1.88,4.56,2.704,7.168,2.2c2.608-0.496,4.8-2.264,5.84-4.704l17.84-41.624l39.952,66.584    c1.448,2.424,4.056,3.88,6.848,3.88c0.288,0,0.584-0.016,0.872-0.048c3.104-0.336,5.728-2.464,6.72-5.424l24-72L408.416,365.464z" fill="#17e78c" data-original="#000000" style="" class=""/>
	</g>
</g>
<g xmlns="http://www.w3.org/2000/svg">
	<g>
		<path d="M472,208h-80c-4.416,0-8,3.584-8,8v64c0,4.416,3.584,8,8,8h80c4.416,0,8-3.584,8-8v-64C480,211.584,476.416,208,472,208z     M449.192,224L432,237.76L414.8,224H449.192z M400,232.64L419.2,248L400,263.36V232.64z M414.8,272l17.2-13.76L449.2,272H414.8z     M464,263.352L444.8,248l19.2-15.36V263.352z" fill="#17e78c" data-original="#000000" style="" class=""/>
	</g>
</g>
<g xmlns="http://www.w3.org/2000/svg">
</g>
<g xmlns="http://www.w3.org/2000/svg">
</g>
<g xmlns="http://www.w3.org/2000/svg">
</g>
<g xmlns="http://www.w3.org/2000/svg">
</g>
<g xmlns="http://www.w3.org/2000/svg">
</g>
<g xmlns="http://www.w3.org/2000/svg">
</g>
<g xmlns="http://www.w3.org/2000/svg">
</g>
<g xmlns="http://www.w3.org/2000/svg">
</g>
<g xmlns="http://www.w3.org/2000/svg">
</g>
<g xmlns="http://www.w3.org/2000/svg">
</g>
<g xmlns="http://www.w3.org/2000/svg">
</g>
<g xmlns="http://www.w3.org/2000/svg">
</g>
<g xmlns="http://www.w3.org/2000/svg">
</g>
<g xmlns="http://www.w3.org/2000/svg">
</g>
<g xmlns="http://www.w3.org/2000/svg">
</g>
</g></svg>
